<?xml version="1.0" encoding="UTF-8" standalone="no"?>
<svg width="61px" height="60px" viewBox="0 0 61 60" version="1.1" xmlns="http://www.w3.org/2000/svg" xmlns:xlink="http://www.w3.org/1999/xlink" xmlns:sketch="http://www.bohemiancoding.com/sketch/ns">
    <!-- Generator: Sketch 3.2.2 (9983) - http://www.bohemiancoding.com/sketch -->
    <title>Slice 1</title>
    <desc>Created with Sketch.</desc>
    <defs></defs>
    <g id="Page-1" stroke="none" stroke-width="1" fill="none" fill-rule="evenodd" sketch:type="MSPage">
        <g id="Instagram" sketch:type="MSLayerGroup">
            <path d="M0.799132948,30 C0.799132948,13.4314567 14.2499993,0 30.8424855,0 C47.4349718,0 60.8858382,13.4314567 60.8858382,30 C60.8858382,46.5685433 47.4349718,60 30.8424855,60 C14.2499993,60 0.799132948,46.5685433 0.799132948,30 L0.799132948,30 Z" id="Shape" fill="#517FA4" sketch:type="MSShapeGroup"></path>
            <path d="M18.8710376,27.1981692 C18.8710376,31.7132463 18.8706014,36.2283235 18.8714739,40.7434006 C18.8714739,41.3928922 19.4346565,41.9513416 20.0850866,41.9513416 C27.2550864,41.9517772 34.4246499,41.9517772 41.5946496,41.9513416 C42.2511871,41.9513416 42.811316,41.3937634 42.811316,40.7394801 C42.8117523,36.2296303 42.811316,31.7202161 42.811316,27.2108018 L42.811316,27.1171461 L39.894632,27.1171461 C40.3064402,28.4313755 40.4329491,29.7682565 40.2715412,31.1308384 C40.1092609,32.4938559 39.6695335,33.7623465 38.9532315,34.9336964 C38.2364932,36.1063532 37.3073073,37.0777591 36.1695999,37.8509633 C33.2206343,39.8565027 29.3381205,40.0329239 26.2089888,38.279166 C24.6271916,37.3935749 23.3852234,36.1586262 22.519292,34.5673501 C21.2275927,32.1928508 21.0212523,29.7007373 21.7789969,27.1149681 C20.8114221,27.1158393 19.8477734,27.1158393 18.8710376,27.1158393 L18.8710376,27.1981692 Z M43.5407051,45.1717917 C43.3836596,45.2057692 43.224433,45.2279852 43.0656425,45.2549929 L18.6193286,45.2549929 C18.5543292,45.2445383 18.4888936,45.2319056 18.4238942,45.2240647 C17.0798464,45.0515639 15.9499913,44.0270139 15.6507323,42.7053791 C15.6158333,42.5511739 15.5935852,42.3947906 15.565666,42.2397141 L15.565666,17.7615927 C15.5756995,17.704528 15.5874779,17.647899 15.5953302,17.5908343 C15.7881472,16.2212827 16.7897485,15.1326983 18.1433935,14.8247234 C18.2890968,14.7916172 18.4378538,14.7715792 18.5857383,14.7450071 L43.0992328,14.7450071 C43.1559437,14.7550261 43.2122183,14.7676588 43.2698017,14.7750641 C44.6566007,14.9645536 45.7860196,16.0256947 46.0534332,17.3930683 C46.0796075,17.5263643 46.0979294,17.6605316 46.1193051,17.7942633 L46.1193051,42.2057367 C46.097057,42.3416464 46.0778625,42.4792986 46.0516883,42.6147727 C45.8078315,43.8680169 44.7883444,44.9073777 43.5407051,45.1717917 L43.5407051,45.1717917 Z M24.6516209,29.9063443 C24.6027623,33.3655076 27.3759242,36.10766 30.7004902,36.1790998 C34.1598537,36.2531531 36.9578811,33.4931407 37.0307328,30.1363453 C37.1053294,26.6745684 34.3090469,23.8152373 30.8427037,23.8174154 C27.4540107,23.8152373 24.6991708,26.5377875 24.6516209,29.9063443 L24.6516209,29.9063443 Z M41.6369646,22.569834 C42.2839049,22.5537165 42.8108798,22.0000587 42.8108798,21.3531808 C42.811316,20.3900515 42.811316,19.4264865 42.8108798,18.4633572 C42.8108798,17.7724829 42.2634017,17.2227456 41.5724015,17.2223099 C40.6104978,17.2218743 39.6485941,17.2214387 38.6862541,17.2223099 C37.9969989,17.2231812 37.4477758,17.7742253 37.4473396,18.4650996 C37.4469034,19.4199524 37.4442859,20.3748052 37.4508295,21.3300936 C37.451702,21.4725374 37.4787487,21.6206441 37.5241174,21.7556826 C37.6968674,22.2640372 38.1632053,22.5759325 38.7342402,22.5785462 C39.198397,22.5794174 39.6625537,22.5781106 40.1271466,22.5781106 C40.6296922,22.5724477 41.1339828,22.582031 41.6369646,22.569834 L41.6369646,22.569834 Z" id="Path" fill="#FFFFFF" sketch:type="MSShapeGroup"></path>
            <path d="M60.8858382,30 C60.8858382,46.5685433 47.4349718,60 30.8424855,60 C24.6887254,60 18.9670927,58.1525134 14.2036224,54.9827754 L48.6281808,5.81941103 C56.0619437,11.2806503 60.8858382,20.0777973 60.8858382,30 L60.8858382,30 Z" id="reflec" fill-opacity="0.08" fill="#000000" sketch:type="MSShapeGroup"></path>
        </g>
    </g>
</svg>