<?xml version="1.0" encoding="UTF-8"?>
<svg width="48px" height="48px" viewBox="0 0 48 48" version="1.1" xmlns="http://www.w3.org/2000/svg" xmlns:xlink="http://www.w3.org/1999/xlink">
    <!-- Generator: Sketch 46.2 (44496) - http://www.bohemiancoding.com/sketch -->
    <title>Untitled 2</title>
    <desc>Created with Sketch.</desc>
    <defs></defs>
    <g id="Page-1" stroke="none" stroke-width="1" fill="none" fill-rule="evenodd">
        <g id="youtube" fill-rule="nonzero">
            <circle id="Oval" fill="#D82B2B" cx="24" cy="24" r="24"></circle>
            <path d="M21.9403636,32.2690909 C17.2276364,32.1883636 15.6174545,32.1163636 14.6269091,31.92 C13.9570909,31.7890909 13.3767273,31.5054545 12.9469091,31.0909091 C12.6196364,30.7745455 12.3578182,30.2945455 12.1549091,29.6290909 C11.9803636,29.0749091 11.9149091,28.6145455 11.8167273,27.4865455 C11.6683636,24.9447273 11.6334545,22.8654545 11.8167273,20.5418182 C11.9694545,19.2589091 12.0414545,17.736 13.0494545,16.848 C13.5229091,16.4334545 14.0749091,16.1629091 14.6967273,16.0516364 C15.6676364,15.8770909 19.7978182,15.7396364 24.0785455,15.7396364 C28.344,15.7396364 32.4850909,15.8770909 33.456,16.0516364 C34.2305455,16.1912727 34.9570909,16.6058182 35.3847273,17.1425455 C36.3010909,18.5170909 36.3185455,20.2276364 36.4101818,21.5672727 C36.4538182,22.2043636 36.4538182,25.8218182 36.4101818,26.4610909 C36.2683636,28.5774545 36.1483636,29.3236364 35.8210909,30.1003636 C35.6181818,30.5912727 35.4436364,30.8487273 35.1447273,31.1345455 C34.6690909,31.5752727 34.0669091,31.8698182 33.4145455,31.9745455 C29.3345455,32.2669091 25.8741818,32.3301818 21.9425455,32.2712727 L21.9403636,32.2690909 Z M28.224,23.7730909 C25.9549091,22.6167273 23.7818182,21.5476364 21.6,20.4392727 L21.6,27.072 C23.7818182,25.8610909 26.3629091,24.7527273 28.2327273,23.7643636 L28.224,23.7730909 L28.224,23.7730909 Z" id="Shape" fill="#FFFFFF"></path>
            <path d="M7.02981818,40.9701818 C11.3716364,45.312 17.3716364,48 24,48 C37.2545455,48 48,37.2545455 48,24 C48,17.3716364 45.3163636,11.3716364 40.9701818,7.02981818 L7.02981818,40.9701818 Z" id="Shape" fill="#231F20" opacity="0.1"></path>
        </g>
    </g>
</svg>