<svg width="60" height="60" xmlns="http://www.w3.org/2000/svg" xmlns:sketch="http://www.bohemiancoding.com/sketch/ns"><title>Facebook</title><g sketch:type="MSLayerGroup" fill="none"><path d="M.112 30c0-16.569 13.23-30 29.551-30 16.32 0 29.551 13.431 29.551 30 0 16.569-13.23 30-29.551 30-16.32 0-29.551-13.431-29.551-30zm0 0" fill="#3B5998" sketch:type="MSShapeGroup"/><path d="M32.134 46.32v-16.322h4.432l.587-5.625h-5.019l.008-2.815c0-1.467.137-2.253 2.21-2.253h2.77v-5.625h-4.432c-5.324 0-7.198 2.728-7.198 7.317v3.377h-3.319v5.625h3.319v16.321h6.642zm0 0" fill="#fff" sketch:type="MSShapeGroup"/><path d="M59.214 30c0 16.569-13.23 30-29.551 30-6.053 0-11.681-1.847-16.366-5.017l33.86-49.163c7.312 5.461 12.057 14.258 12.057 24.181zm0 0" fill-opacity=".08" sketch:type="MSShapeGroup"/></g></svg>