<svg width="60" height="60" xmlns="http://www.w3.org/2000/svg" xmlns:sketch="http://www.bohemiancoding.com/sketch/ns"><title>Twitter</title><g sketch:type="MSLayerGroup" fill="none"><path d="M0 30c0-16.569 13.451-30 30.043-30s30.043 13.431 30.043 30c0 16.569-13.451 30-30.043 30s-30.043-13.431-30.043-30zm0 0" fill="#4099FF" sketch:type="MSShapeGroup"/><path d="M29.3 23.888l.063 1.038-1.049-.127c-3.819-.487-7.156-2.14-9.989-4.915l-1.385-1.377-.357 1.017c-.755 2.267-.273 4.661 1.301 6.271.839.89.651 1.017-.797.487-.504-.169-.944-.297-.986-.233-.147.148.357 2.076.755 2.839.546 1.059 1.658 2.097 2.875 2.712l1.028.487-1.217.021c-1.175 0-1.217.021-1.091.466.42 1.377 2.077 2.839 3.924 3.474l1.301.445-1.133.678c-1.679.975-3.651 1.525-5.624 1.568-.944.021-1.721.106-1.721.169 0 .212 2.56 1.398 4.05 1.864 4.47 1.377 9.779.784 13.766-1.568 2.833-1.674 5.666-5 6.988-8.22.713-1.716 1.427-4.851 1.427-6.356 0-.975.063-1.102 1.238-2.267.692-.678 1.343-1.419 1.469-1.631.21-.403.189-.403-.881-.042-1.784.636-2.035.551-1.154-.403.651-.678 1.427-1.907 1.427-2.267 0-.064-.315.042-.672.233-.378.212-1.217.53-1.847.72l-1.133.36-1.028-.699c-.567-.381-1.364-.805-1.784-.932-1.07-.297-2.707-.254-3.672.085-2.623.953-4.281 3.411-4.092 6.101zm0 0" fill="#fff" sketch:type="MSShapeGroup"/><path d="M60.087 30c0 16.569-13.451 30-30.043 30-6.154 0-11.875-1.847-16.639-5.017l34.425-49.163c7.434 5.461 12.258 14.258 12.258 24.181zm0 0" fill-opacity=".08" sketch:type="MSShapeGroup"/></g></svg>